<svg xmlns="http://www.w3.org/2000/svg" viewBox="0 -0.5 48 48" shape-rendering="crispEdges">
<metadata>Made with Pixels to Svg https://codepen.io/shshaw/pen/XbxvNj</metadata>
<path stroke="rgba(255,255,255,0.00392156862745098)" d="M18 0h1M20 0h4M28 0h1M0 1h1M18 1h2M21 1h1M28 1h1M30 1h3M13 2h2M26 2h2M34 2h2M42 2h1M1 3h1M10 3h1M13 3h1M26 3h2M37 3h1M40 3h1M1 4h1M9 4h3M29 4h3M40 4h1M0 5h1M9 5h1M39 5h1M44 5h1M32 6h1M38 6h2M44 6h2M39 7h1M0 8h1M3 8h1M36 8h4M33 9h2M46 9h1M4 10h2M33 10h2M4 11h2M3 12h2M3 13h2M35 13h2M42 13h1M44 13h1M3 14h1M35 14h2M42 14h1M44 14h1M2 15h2M44 15h1M46 15h1M2 16h2M44 16h1M46 16h1M2 17h2M42 17h2M3 18h1M42 18h2M3 19h1M36 19h1M43 19h1M43 20h1M0 21h1M46 21h1M2 23h1M37 23h2M46 23h1M37 24h2M46 24h1M3 25h2M42 25h1M45 25h1M1 26h1M3 26h2M42 26h1M1 27h1M36 27h2M36 28h2M38 29h1M6 30h1M38 30h1M6 31h1M38 31h2M41 31h1M3 32h1M38 32h4M36 34h1M7 35h2M35 35h2M40 35h1M47 35h1M1 36h1M5 36h2M36 36h1M39 36h2M42 36h1M47 36h1M4 37h3M35 37h2M39 37h1M3 38h2M35 38h2M38 38h1M42 38h2M41 39h3M46 39h2M41 40h1M44 40h1M46 40h2M46 41h1M46 42h1" />
<path stroke="rgba(255,254,255,0.00392156862745098)" d="M19 0h1M37 7h1M37 19h1M46 22h1M43 23h1M1 29h1" />
<path stroke="rgba(255,255,255,0.054901960784313725)" d="M26 0h1M2 33h1" />
<path stroke="rgba(255,255,255,0.01568627450980392)" d="M29 0h1M15 1h1M24 1h2M29 1h1M15 2h1M25 2h1M2 3h1M32 3h2M38 3h2M2 4h1M32 4h2M36 4h2M39 4h1M40 5h2M40 6h2M40 7h6M40 8h3M44 8h2M36 11h1M38 11h5M44 11h4M36 12h7M44 12h2M45 13h1M45 14h1M37 15h1M47 15h1M38 16h1M47 16h1M38 19h2M46 19h2M36 20h4M46 20h2M39 21h6M39 22h2M42 22h3M3 23h2M40 23h2M3 24h2M39 24h3M38 27h1M40 27h1M1 28h1M38 28h1M40 28h1M0 29h1M37 29h1M44 29h4M36 30h2M44 30h4M44 31h2M6 32h2M44 32h2M6 33h2M46 33h2M46 34h2M42 35h2M7 36h1M43 36h1M41 37h2M0 38h1M2 38h1M1 39h3M45 41h1M47 41h1" />
<path stroke="rgba(255,255,255,0.03137254901960784)" d="M30 0h2M34 0h4M40 0h3M36 1h2M12 2h1M32 2h2M46 2h2M12 3h1M30 3h2M44 3h1M46 3h1M44 4h2M36 5h2M43 5h1M37 6h1M7 8h1M1 9h1M4 9h1M42 9h4M41 10h5M39 13h1M39 14h1M0 15h1M39 15h4M45 15h1M39 16h4M45 16h1M38 17h1M46 17h1M0 18h1M38 18h1M46 18h2M0 19h1M45 21h1M45 22h1M45 23h1M39 25h2M43 25h1M47 25h1M39 26h2M43 26h2M47 26h1M46 27h2M46 28h2M3 29h1M36 31h2M46 31h1M36 32h2M46 32h2M40 33h4M2 34h1M40 34h4M2 35h1M39 35h1M41 35h1" />
<path stroke="rgba(255,255,255,0.027450980392156862)" d="M32 0h1M0 6h2M42 27h1M44 27h1M42 28h1M44 28h1" />
<path stroke="rgba(255,255,255,0.00784313725490196)" d="M38 0h1M47 0h1M16 1h1M34 1h2M38 1h2M47 1h1M16 2h1M30 2h2M43 2h1M14 3h1M28 3h1M35 3h1M42 3h1M0 4h1M28 4h1M34 4h2M42 4h1M1 5h1M7 5h1M30 5h2M33 5h3M46 5h1M2 6h2M31 6h1M33 6h3M31 7h2M34 7h2M34 8h1M36 9h3M40 9h1M36 10h5M34 11h2M34 12h2M37 13h1M46 13h1M37 14h2M46 14h1M35 15h2M40 17h2M44 17h2M2 18h1M36 18h2M44 18h2M2 19h1M4 19h1M40 19h2M45 19h1M3 20h2M40 20h2M45 20h1M3 21h2M37 21h2M2 22h1M37 22h2M43 24h2M37 25h2M37 26h2M2 28h1M41 28h1M2 29h1M40 29h4M2 30h1M40 30h4M42 32h2M44 33h2M7 34h1M44 34h2M44 35h2M44 36h2M37 37h2M40 37h1M43 37h2M47 37h1M37 38h1M40 38h2M44 38h2M47 38h1M43 40h1M43 41h2" />
<path stroke="rgba(255,255,255,0.0196078431372549)" d="M39 0h1M5 5h1M47 10h1M0 13h1M36 16h1M36 17h1M41 26h1M38 33h1M38 34h1" />
<path stroke="rgba(255,255,255,0.07058823529411765)" d="M7 1h1" />
<path stroke="rgba(255,255,254,0.00392156862745098)" d="M20 1h1M38 2h1M11 3h1M38 5h1M38 7h1M2 14h1M44 23h1M35 36h1M41 36h1" />
<path stroke="rgba(255,255,255,0.011764705882352941)" d="M40 1h2M36 3h1M41 3h1M41 4h1M46 6h1M1 13h1M43 13h1M43 14h1M1 24h2M2 25h1M4 27h2M2 36h1M1 38h1M47 42h1" />
<path stroke="#000000" d="M18 2h3M15 3h11M12 4h3M16 4h2M19 4h4M24 4h4M10 5h11M22 5h8M9 6h13M24 6h6M9 7h1M11 7h15M27 7h3M9 8h2M14 8h2M17 8h12M31 8h1M8 9h4M13 9h6M20 9h3M24 9h6M31 9h2M6 10h3M11 10h1M13 10h15M29 10h4M6 11h1M8 11h9M18 11h5M25 11h2M29 11h5M5 12h16M26 12h8M5 13h15M29 13h6M4 14h11M16 14h3M30 14h5M4 15h3M8 15h3M12 15h5M31 15h4M5 16h12M33 16h3M5 17h11M33 17h2M6 18h2M9 18h4M33 18h3M5 19h7M13 19h1M35 19h1M6 20h7M34 20h2M5 21h1M7 21h5M14 21h6M27 21h6M34 21h2M5 22h7M13 22h1M20 22h7M33 22h1M35 22h2M5 23h3M9 23h2M12 23h1M22 23h3M34 23h3M5 24h8M22 24h1M24 24h1M36 24h1M5 25h6M12 25h1M22 25h1M24 25h1M34 25h3M5 26h6M13 26h1M21 26h1M25 26h1M33 26h1M35 26h2M7 27h4M14 27h1M20 27h1M26 27h1M32 27h1M34 27h2M6 28h7M15 28h14M31 28h4M7 29h2M10 29h1M34 29h1M7 30h3M34 30h2M7 31h3M35 31h1M8 32h1M35 32h1M8 33h2M35 33h1M9 34h2M34 34h2M9 35h2M16 35h4M21 35h5M27 35h4M34 35h1M9 36h3M34 36h1M7 37h2M10 37h3M33 37h2M5 38h2M8 38h5M33 38h2M4 39h1M9 39h5M32 39h3M36 39h4M1 40h3M8 40h7M32 40h9M0 41h4M5 41h10M32 41h1M34 41h6M41 41h2M0 42h4M5 42h8M14 42h1M32 42h2M35 42h4M40 42h1M43 42h2M0 43h15M32 43h2M35 43h5M41 43h1M45 43h2M6 44h9M32 44h7M41 44h1M47 44h1M6 45h3M10 45h5M32 45h3M37 45h1M39 45h4M7 46h8M32 46h10M7 47h8M32 47h9" />
<path stroke="#010000" d="M21 2h1M15 4h1M18 4h1M21 5h1M30 6h1M30 7h1M12 8h1M30 8h1M12 9h1M30 9h1M9 10h1M12 10h1M24 11h1M27 11h1M15 14h1M12 19h1M6 21h1M36 21h1M6 27h1M30 28h1M6 29h1M9 29h1M9 32h1M9 37h1M33 41h1M39 42h1M39 44h1M9 45h1M36 45h1" />
<path stroke="rgba(255,255,255,0.0392156862745098)" d="M22 2h2M2 7h2M0 26h1M2 26h1" />
<path stroke="rgba(254,255,255,0.01568627450980392)" d="M24 2h1M39 23h1M39 27h1M39 28h1M36 29h1M45 42h1" />
<path stroke="rgba(255,255,255,0.03529411764705882)" d="M28 2h1M1 34h1" />
<path stroke="rgba(255,255,255,0.043137254901960784)" d="M0 3h1" />
<path stroke="rgba(255,254,255,0.00784313725490196)" d="M34 3h1M4 18h1M1 22h1M43 31h1M40 39h1" />
<path stroke="rgba(255,255,255,0.023529411764705882)" d="M43 3h1M43 4h1M47 5h1M0 9h1M41 13h1M41 14h1M43 15h1M43 16h1M42 19h1M42 20h1M1 32h1M4 35h1" />
<path stroke="rgba(254,255,255,0.03137254901960784)" d="M45 3h1M36 6h1M39 17h1M39 18h1M45 24h1M3 28h1M0 33h1" />
<path stroke="rgba(255,255,254,0.03137254901960784)" d="M47 3h1M41 9h1M47 17h1M47 21h1M47 22h1M44 25h1M47 31h1" />
<path stroke="#000001" d="M23 4h1M23 6h1M26 7h1M8 8h1M11 8h1M29 8h1M23 9h1M17 11h1M23 11h1M11 15h1M17 15h1M32 16h1M35 17h1M5 18h1M8 18h1M14 18h1M5 20h1M8 23h1M35 24h1M11 27h1M14 28h1M29 28h1M35 28h1M35 29h1M14 39h1M35 39h1M5 44h1M35 45h1M38 45h1M41 47h1" />
<path stroke="rgba(255,255,254,0.01568627450980392)" d="M38 4h1M47 12h1M38 15h1M41 22h1M8 36h1" />
<path stroke="rgba(255,255,254,0.00784313725490196)" d="M32 5h1M35 8h1M38 13h1M8 34h1" />
<path stroke="rgba(255,255,255,0.06274509803921569)" d="M42 5h1M42 6h1M47 6h1M47 23h1M47 24h1M2 27h2M1 35h1" />
<path stroke="rgba(254,255,255,0.00392156862745098)" d="M45 5h1M36 7h1M39 29h1M39 30h1M3 37h1M0 39h1" />
<path stroke="#000100" d="M22 6h1M10 7h1M13 8h1M16 8h1M7 9h1M19 9h1M10 10h1M28 10h1M7 11h1M28 11h1M25 12h1M7 15h1M4 16h1M4 17h1M13 18h1M34 19h1M34 22h1M34 24h1M13 28h1M13 38h1M4 41h1M40 41h1M4 42h1M13 42h1M34 42h1M34 43h1M40 43h1M40 44h1" />
<path stroke="rgba(255,254,255,0.03137254901960784)" d="M43 6h1" />
<path stroke="rgba(255,255,255,0.08235294117647059)" d="M0 7h1M0 11h1M0 31h1" />
<path stroke="rgba(255,255,255,0.050980392156862744)" d="M2 8h1M2 9h1M47 9h1M1 21h1M5 32h1M5 33h1" />
<path stroke="rgba(255,255,255,0.058823529411764705)" d="M32 8h1M5 9h1M38 35h1M38 36h1" />
<path stroke="rgba(255,254,255,0.01568627450980392)" d="M43 8h1M37 11h1M43 11h1M43 12h1M46 12h1" />
<path stroke="rgba(238,238,238,0.058823529411764705)" d="M6 9h1" />
<path stroke="rgba(254,255,255,0.00784313725490196)" d="M39 9h1M42 31h1M45 37h1M42 40h1" />
<path stroke="rgba(255,255,255,0.09411764705882353)" d="M2 11h1" />
<path stroke="rgba(255,255,255,0.06666666666666667)" d="M3 11h1M45 26h1M0 27h1M0 30h1" />
<path stroke="#b19f91" d="M21 12h4M20 13h5M26 13h3M19 14h11M18 15h1M20 15h11M17 16h7M25 16h1M27 16h2M30 16h2M16 17h7M24 17h9M15 18h5M21 18h4M27 18h6M14 19h10M26 19h3M30 19h4M13 20h9M23 20h2M26 20h8M12 21h2M20 21h2M23 21h4M33 21h1M12 22h1M11 23h1M23 24h1M11 25h1M11 26h2M22 26h3M34 26h1M12 27h2M21 27h5M33 27h1" />
<path stroke="#b19e91" d="M25 13h1M19 15h1M25 18h1M25 19h1M22 20h1M25 20h1M22 21h1" />
<path stroke="#b09f91" d="M24 16h1M24 19h1" />
<path stroke="#b19f90" d="M26 16h1M29 16h1M23 17h1M20 18h1M26 18h1M29 19h1M23 25h1" />
<path stroke="#3c7b9e" d="M14 22h6M28 22h1M30 22h3M13 23h4M18 23h4M25 23h2M28 23h3M32 23h2M14 24h2M18 24h4M25 24h9M13 25h5M19 25h2M25 25h1M27 25h7M14 26h5M20 26h1M26 26h7M16 27h2M19 27h1M27 27h5M7 38h1M5 39h1M7 39h2M4 40h4M41 42h2M43 43h2M0 44h5M42 44h5M0 45h6M43 45h1M46 45h2M0 46h6M44 46h3M0 47h4M5 47h2M43 47h5" />
<path stroke="#3d7b9e" d="M27 22h1M18 25h1M21 25h1M15 27h1M18 27h1M6 39h1M42 43h1M45 45h1M6 46h1" />
<path stroke="#3c7b9f" d="M29 22h1M17 23h1M17 24h1M26 25h1M44 45h1M47 46h1" />
<path stroke="#3b7a9c" d="M27 23h1" />
<path stroke="#3c7b9d" d="M31 23h1" />
<path stroke="#3c7a9e" d="M13 24h1M16 24h1M19 26h1M43 46h1M4 47h1" />
<path stroke="rgba(255,254,255,0.011764705882352941)" d="M1 25h1" />
<path stroke="rgba(255,255,254,0.0196078431372549)" d="M41 25h1" />
<path stroke="rgba(254,255,255,0.06274509803921569)" d="M0 28h1" />
<path stroke="#6c4d3a" d="M11 29h9M21 29h6M28 29h6M10 30h5M16 30h5M26 30h8M10 31h3M10 32h2M13 32h3M31 32h3M10 33h4M23 33h1M33 33h2M11 34h2M15 34h3M22 34h3M29 34h4M11 35h2M14 35h2M31 35h1M33 35h1M12 36h1M14 36h2M31 36h3M13 37h2M32 37h1M14 38h1M32 38h1" />
<path stroke="#6c4d3b" d="M20 29h1M14 34h1M32 35h1" />
<path stroke="#6d4d3a" d="M27 29h1M15 30h1" />
<path stroke="#dc7377" d="M21 30h5M22 31h1M24 31h1M23 32h1" />
<path stroke="#ffffff" d="M13 31h4M30 31h4M12 32h1M34 32h1M14 33h3M30 33h3M13 34h1M33 34h1M20 35h1M26 35h1" />
<path stroke="#c9c7ba" d="M17 31h4M26 31h1M28 31h2M16 32h6M25 32h6M17 33h6M24 33h1M26 33h4M19 34h3M25 34h4" />
<path stroke="#8e3233" d="M21 31h1M25 31h1M22 32h1M24 32h1" />
<path stroke="#dc7376" d="M23 31h1" />
<path stroke="#c8c7ba" d="M27 31h1M18 34h1" />
<path stroke="#6c4c3a" d="M34 31h1M13 35h1M13 36h1" />
<path stroke="#c9c6ba" d="M25 33h1" />
<path stroke="rgba(255,255,255,0.0784313725490196)" d="M4 34h1" />
<path stroke="#092439" d="M16 36h1M15 37h2M15 38h2M15 39h2M15 40h2M15 41h2M15 42h2M15 43h2M15 44h2M15 45h2M15 46h2M16 47h1" />
<path stroke="#164691" d="M17 36h1M17 44h1M17 46h1" />
<path stroke="#164690" d="M18 36h1M17 37h2M17 38h2M17 39h2M17 40h2M17 41h2M17 42h2M17 43h2M18 44h1M17 45h2M18 46h1M17 47h2" />
<path stroke="#0073c6" d="M19 36h2M19 37h2M19 38h2M19 39h2M19 40h2M19 41h2M19 42h2M19 43h2M19 44h2M19 45h2M19 46h1M20 47h1" />
<path stroke="#22433c" d="M21 36h2M21 37h2M21 38h2M21 39h2M21 40h2M21 41h2M22 42h1M21 43h2M21 44h2M21 45h2M21 46h2M21 47h2" />
<path stroke="#31803f" d="M23 36h1M23 43h1M23 47h1" />
<path stroke="#31803e" d="M24 36h1M23 37h2M23 38h1M23 39h2M23 40h2M23 41h2M23 42h2M24 43h1M23 44h2M23 45h2M23 46h2M24 47h1" />
<path stroke="#a6b84a" d="M25 36h2M25 37h2M25 38h2M25 39h2M25 40h2M25 41h2M25 42h2M26 43h1M26 44h1M25 45h2M25 46h2M25 47h2" />
<path stroke="#ac724a" d="M27 36h2M28 37h1M27 38h1M27 39h2M27 40h2M27 41h2M27 42h2M28 43h1M27 44h2M27 45h2M27 46h2M27 47h2" />
<path stroke="#a05744" d="M29 36h2M29 37h2M29 38h2M29 39h2M29 40h2M30 41h1M29 42h2M29 43h2M29 44h1M29 45h2M29 46h1M29 47h1" />
<path stroke="#ad724a" d="M27 37h1M27 43h1" />
<path stroke="#9b4741" d="M31 37h1M31 41h1" />
<path stroke="#30803e" d="M24 38h1" />
<path stroke="#ac734a" d="M28 38h1" />
<path stroke="#9b4641" d="M31 38h1M31 39h1M31 40h1M31 42h1M31 43h1M31 44h1M31 45h1M31 46h1M31 47h1" />
<path stroke="#a05745" d="M29 41h1" />
<path stroke="#23433c" d="M21 42h1" />
<path stroke="#a6b94a" d="M25 43h1M25 44h1" />
<path stroke="#a15744" d="M30 44h1M30 46h1M30 47h1" />
<path stroke="#0073c7" d="M20 46h1" />
<path stroke="#03070c" d="M42 46h1M42 47h1" />
<path stroke="#082439" d="M15 47h1" />
<path stroke="#0072c6" d="M19 47h1" />
</svg>