<svg xmlns="http://www.w3.org/2000/svg" viewBox="0 -0.5 50 50" shape-rendering="crispEdges">
<metadata>Made with Pixels to Svg https://codepen.io/shshaw/pen/XbxvNj</metadata>
<path stroke="#000000" d="M19 3h1M16 4h11M13 5h3M18 5h1M20 5h4M25 5h4M11 6h6M18 6h4M23 6h8M11 7h12M25 7h3M29 7h2M10 8h1M12 8h15M28 8h2M10 9h1M15 9h2M18 9h2M22 9h8M32 9h1M9 10h1M11 10h1M14 10h6M21 10h3M25 10h6M32 10h1M7 11h3M12 11h1M14 11h11M26 11h3M30 11h2M33 11h1M7 12h1M9 12h9M19 12h5M26 12h1M30 12h5M6 13h13M20 13h2M27 13h2M30 13h3M34 13h1M6 14h3M10 14h1M12 14h8M30 14h3M34 14h2M5 15h11M17 15h3M31 15h1M33 15h3M5 16h1M7 16h1M9 16h3M13 16h5M32 16h4M6 17h1M8 17h10M34 17h3M6 18h11M34 18h2M7 19h2M10 19h4M34 19h3M7 20h5M36 20h1M7 21h7M35 21h2M6 22h1M8 22h3M12 22h1M15 22h6M28 22h6M35 22h2M7 23h6M14 23h1M21 23h7M34 23h1M36 23h2M6 24h3M10 24h2M13 24h1M23 24h3M35 24h3M6 25h8M23 25h1M25 25h1M37 25h1M6 26h3M10 26h2M13 26h1M23 26h1M25 26h1M36 26h2M6 27h1M8 27h4M14 27h1M22 27h1M26 27h1M34 27h1M36 27h2M9 28h3M15 28h1M21 28h1M27 28h1M33 28h1M35 28h2M7 29h7M16 29h13M32 29h4M8 30h2M11 30h1M35 30h1M8 31h3M35 31h2M8 32h3M36 32h1M9 33h1M36 33h1M9 34h2M36 34h1M10 35h1M35 35h2M10 36h2M17 36h1M20 36h1M22 36h5M28 36h4M35 36h1M10 37h3M35 37h1M8 38h2M11 38h3M34 38h2M6 39h2M9 39h3M13 39h1M34 39h2M5 40h1M10 40h6M33 40h2M37 40h4M3 41h2M10 41h6M33 41h9M1 42h4M6 42h1M8 42h6M15 42h1M33 42h1M35 42h6M42 42h2M1 43h4M6 43h1M8 43h1M10 43h1M12 43h2M15 43h1M33 43h2M36 43h4M41 43h1M44 43h2M0 44h13M15 44h1M33 44h2M36 44h1M38 44h3M42 44h1M46 44h2M0 45h1M7 45h9M33 45h4M38 45h2M42 45h1M48 45h1M8 46h2M11 46h5M33 46h3M38 46h1M40 46h3M8 47h8M33 47h8M42 47h1M9 48h7M33 48h9M8 49h3M12 49h4M33 49h10" />
<path stroke="#000100" d="M20 3h1M17 5h1M23 7h1M28 7h1M11 8h1M14 9h1M17 9h1M20 9h1M8 10h1M20 10h1M25 11h1M29 11h1M8 12h1M29 12h1M26 13h1M9 14h1M33 14h1M6 16h1M5 17h1M7 17h1M5 18h1M35 20h1M35 23h1M35 25h1M14 29h1M14 39h1M9 41h1M5 42h1M41 42h1M5 43h1M7 43h1M9 43h1M35 43h1M35 44h1M41 44h1M41 45h1M11 49h1" />
<path stroke="#010000" d="M21 3h2M16 5h1M19 5h1M22 6h1M10 7h1M30 8h2M11 9h1M13 9h1M21 9h1M31 9h1M10 10h1M12 10h2M31 10h1M10 11h1M13 11h1M25 12h1M27 12h2M19 13h1M20 14h1M16 15h1M33 17h1M6 20h1M12 20h2M11 22h1M37 22h1M7 27h1M7 28h1M29 29h1M31 29h1M7 30h1M10 30h1M10 33h1M19 36h1M10 38h1M12 39h1M35 40h1M2 41h1M7 42h1M34 42h1M11 43h1M40 43h1M37 44h1M40 45h1M7 46h1M10 46h1M37 46h1M41 47h1M8 48h1M43 49h1" />
<path stroke="#000001" d="M24 5h1M17 6h1M24 7h1M27 8h1M9 9h1M12 9h1M30 9h1M24 10h1M33 10h1M32 11h1M18 12h1M29 13h1M33 13h1M11 14h1M32 15h1M12 16h1M18 16h1M36 18h1M6 19h1M9 19h1M15 19h1M14 20h1M6 21h1M6 23h1M9 24h1M36 25h1M9 26h1M8 28h1M12 28h1M15 29h1M36 29h1M36 30h1M11 35h1M36 40h1M0 43h1M13 44h2M6 45h1M37 45h1M36 46h1M39 46h1M42 48h1" />
<path stroke="#010100" d="M31 7h1M11 11h1M8 16h1M7 22h1" />
<path stroke="#010001" d="M24 12h1M18 36h1M14 42h1" />
<path stroke="#b19f91" d="M22 13h1M24 13h2M21 14h5M27 14h3M20 15h6M27 15h4M19 16h1M21 16h11M18 17h7M26 17h1M28 17h2M31 17h2M17 18h5M23 18h1M25 18h6M16 19h5M22 19h4M28 19h6M15 20h2M18 20h5M24 20h1M27 20h3M31 20h4M14 21h9M24 21h1M27 21h1M29 21h1M31 21h4M13 22h2M22 22h1M24 22h4M34 22h1M13 23h1M12 24h1M24 25h1M12 26h1M12 27h2M23 27h3M35 27h1M13 28h2M22 28h5M34 28h1" />
<path stroke="#b19f90" d="M23 13h1M27 17h1M30 17h1M24 18h1M21 19h1M27 19h1M23 20h1M30 20h1M24 26h1" />
<path stroke="#b19e91" d="M26 14h1M26 15h1M20 16h1M22 18h1M32 18h1M26 19h1M26 20h1M23 21h1M26 21h1M30 21h1M23 22h1" />
<path stroke="#b09f91" d="M25 17h1M31 18h1M33 18h1M17 20h1M25 20h1M25 21h1M28 21h1M21 22h1" />
<path stroke="#000101" d="M14 19h1M35 26h1M30 29h1M14 43h1" />
<path stroke="#3c7b9e" d="M15 23h6M29 23h1M31 23h3M14 24h4M19 24h4M26 24h2M29 24h2M33 24h2M15 25h2M19 25h4M26 25h9M16 26h3M20 26h2M26 26h1M29 26h1M31 26h4M15 27h5M21 27h1M27 27h4M32 27h2M17 28h2M20 28h1M28 28h5M8 39h1M6 40h1M9 40h1M5 41h4M42 43h2M44 44h2M1 45h5M43 45h5M0 46h2M3 46h4M44 46h2M47 46h3M0 47h1M2 47h2M5 47h1M45 47h2M49 47h1M0 48h3M4 48h1M6 48h2M44 48h4M0 49h3M5 49h3M46 49h1M48 49h2" />
<path stroke="#3d7b9e" d="M28 23h1M19 26h1M22 26h1M16 28h1M19 28h1M7 40h1M43 44h1M2 46h1M46 46h1M1 47h1M7 47h1M3 49h2" />
<path stroke="#3c7b9f" d="M30 23h1M18 24h1M18 25h1M14 26h1M27 26h1M6 47h1M48 47h1M47 49h1" />
<path stroke="#3b7a9c" d="M28 24h1" />
<path stroke="#3c7a9e" d="M31 24h1M14 25h1M17 25h1M15 26h1M28 26h1M30 26h1M20 27h1M31 27h1M8 40h1M4 47h1M44 47h1M3 48h1M5 48h1M48 48h1" />
<path stroke="#3c7b9d" d="M32 24h1" />
<path stroke="#6c4d3a" d="M12 30h7M20 30h1M22 30h3M26 30h2M29 30h2M33 30h2M11 31h5M17 31h1M19 31h3M27 31h6M34 31h1M11 32h3M11 33h2M14 33h2M32 33h3M11 34h1M13 34h2M24 34h1M35 34h1M12 35h2M16 35h3M23 35h3M30 35h4M12 36h2M15 36h2M32 36h1M34 36h1M16 37h1M32 37h3M14 38h2M33 38h1M15 39h1M33 39h1" />
<path stroke="#6c4c3a" d="M19 30h1M33 31h1M35 32h1M14 36h1M13 37h2" />
<path stroke="#6c4d3b" d="M21 30h1M31 30h1M18 31h1M12 34h1M34 34h1M15 35h1M33 36h1" />
<path stroke="#6d4d3a" d="M25 30h1M28 30h1M32 30h1M16 31h1M16 33h1M15 37h1" />
<path stroke="#dc7377" d="M22 31h2M25 31h2M23 32h1M25 32h1M24 33h1" />
<path stroke="#dc7376" d="M24 31h1M24 32h1" />
<path stroke="#ffffff" d="M14 32h4M31 32h4M13 33h1M35 33h1M16 34h2M31 34h3M14 35h1M34 35h1M21 36h1M27 36h1" />
<path stroke="#c9c6ba" d="M18 32h1M21 33h1M26 33h1M26 34h1" />
<path stroke="#c8c7ba" d="M19 32h1M28 32h1M19 35h1" />
<path stroke="#c9c7ba" d="M20 32h2M27 32h1M29 32h2M17 33h4M22 33h1M28 33h4M18 34h6M25 34h1M27 34h4M20 35h3M26 35h4" />
<path stroke="#8e3233" d="M22 32h1M26 32h1M23 33h1M25 33h1" />
<path stroke="#c9c7bb" d="M27 33h1" />
<path stroke="#fffeff" d="M15 34h1" />
<path stroke="#092439" d="M17 37h1M16 38h2M16 39h2M16 40h2M17 41h1M16 42h1M16 43h2M16 44h2M16 45h2M16 46h1M16 47h2M17 48h1M16 49h2" />
<path stroke="#164691" d="M18 37h1M18 38h1M18 45h1" />
<path stroke="#164690" d="M19 37h1M19 38h1M18 39h2M18 40h2M18 41h2M18 42h2M18 43h2M18 44h2M19 45h1M18 46h2M19 47h1M18 48h2M18 49h2" />
<path stroke="#0073c6" d="M20 37h1M20 38h2M20 39h2M21 40h1M21 41h1M20 42h2M20 43h2M21 44h1M20 45h1M20 46h2M20 47h1M21 48h1M20 49h2" />
<path stroke="#0173c6" d="M21 37h1M20 44h1" />
<path stroke="#22433c" d="M22 37h2M22 38h2M22 39h2M22 40h2M22 41h2M22 42h2M23 43h1M22 44h1M22 45h2M22 46h1M22 47h2M22 48h2M22 49h2" />
<path stroke="#31803f" d="M24 37h1M24 44h1M24 48h1" />
<path stroke="#31803e" d="M25 37h1M24 38h2M24 40h2M24 41h2M24 42h2M24 43h2M25 44h1M24 45h2M24 46h2M24 47h1M25 48h1M24 49h2" />
<path stroke="#a6b84a" d="M26 37h2M26 38h2M27 39h1M26 40h2M26 41h1M26 42h2M26 43h2M27 44h1M27 45h1M26 46h2M27 47h1M26 48h2M27 49h1" />
<path stroke="#ac724a" d="M28 37h1M29 38h1M28 39h1M28 40h2M28 41h2M28 42h2M28 43h2M29 44h1M28 45h1M28 46h1M28 47h2M28 48h2M28 49h2" />
<path stroke="#ad724a" d="M29 37h1M28 38h1M28 44h1M29 45h1" />
<path stroke="#a05744" d="M30 37h1M30 38h2M30 39h2M30 40h2M30 41h2M31 42h1M30 43h2M31 44h1M30 45h1M30 46h2M30 47h1M30 48h1M30 49h2" />
<path stroke="#a05644" d="M31 37h1" />
<path stroke="#9b4741" d="M32 38h1M32 42h1" />
<path stroke="#30803e" d="M24 39h2M25 47h1" />
<path stroke="#a6b84b" d="M26 39h1" />
<path stroke="#ac734a" d="M29 39h1M29 46h1" />
<path stroke="#9b4641" d="M32 39h1M32 40h1M32 41h1M32 44h1M32 45h1M32 46h1M32 47h1M32 48h1M32 49h1" />
<path stroke="#0073c7" d="M20 40h1M21 45h1M21 47h1" />
<path stroke="#092438" d="M16 41h1M17 42h1" />
<path stroke="#0072c6" d="M20 41h1M20 48h1" />
<path stroke="#a7b84a" d="M27 41h1M26 47h1" />
<path stroke="#a05745" d="M30 42h1" />
<path stroke="#23433c" d="M22 43h1" />
<path stroke="#9a4641" d="M32 43h1" />
<path stroke="#23423c" d="M23 44h1" />
<path stroke="#a6b94a" d="M26 44h1M26 45h1M26 49h1" />
<path stroke="#a15744" d="M30 44h1M31 45h1M31 47h1M31 48h1" />
<path stroke="#03070c" d="M49 45h1M43 46h1M43 47h1M43 48h1M44 49h2" />
<path stroke="#092539" d="M17 46h1" />
<path stroke="#22423c" d="M23 46h1" />
<path stroke="#164791" d="M18 47h1" />
<path stroke="#3d7a9e" d="M47 47h1M49 48h1" />
<path stroke="#082439" d="M16 48h1" />
</svg>